# xmcd
#
# Track frame offsets:
#	150
#	9660
#	19178
#	28403
#	37606
#	47409
#	58142
#	65432
#	74687
#	84662
#	91652
#	104155
#
# Disc length: 1488 seconds
#
# Revision: 0
# Processed by: cddbd v1.5.2PL0 Copyright (c) Steve Scherf et al.
# Submitted via: audiograbber 1.83.01
#
DISCID=9e05ce0c
DTITLE=Hormer and Jethro - Playing It Straight
DYEAR=1962
DGENRE=Country
TTITLE0=If Dreams Come True
TTITLE1=I Want To Be Happy
TTITLE2=Melody From Raymond
TTITLE3=Don't Be That Way
TTITLE4=It's All Right With Me
TTITLE5=Autumn Leaves
TTITLE6=I'm Looking Over A Four Leaf Clover
TTITLE7=Around The World In 80 Days
TTITLE8=Homer And Jethro Boogie
TTITLE9=Tico Tico
TTITLE10=Nanner Puddin'
TTITLE11=I've Found A New Baby
EXTD=I created this CD from one of my LP's
EXTT0=
EXTT1=
EXTT2=
EXTT3=
EXTT4=
EXTT5=
EXTT6=
EXTT7=
EXTT8=
EXTT9=
EXTT10=
EXTT11=
PLAYORDER=
